<svg width="26" height="27" viewBox="0 0 26 27" fill="none" xmlns="http://www.w3.org/2000/svg">
<path d="M14.043 12.5234C14.043 11.2214 13.9844 10.3294 13.8672 9.84766C13.75 9.35286 13.5352 9.10547 13.2227 9.10547C13.0273 9.10547 12.8516 9.17057 12.6953 9.30078C12.7214 9.53516 12.7604 9.84766 12.8125 10.2383C12.8646 10.6289 12.8906 11.4622 12.8906 12.7383V14.0078C12.8906 14.8932 12.8711 15.5378 12.832 15.9414C12.793 16.3451 12.7604 16.6901 12.7344 16.9766C12.7214 17.1328 12.7083 17.2891 12.6953 17.4453C12.8516 17.5755 13.0273 17.6406 13.2227 17.6406C13.5352 17.6406 13.75 17.3997 13.8672 16.918C13.9844 16.4232 14.043 15.5247 14.043 14.2227V12.5234ZM13.2617 26.625C10.944 26.625 8.8151 26.1497 6.875 25.1992C4.94792 24.2357 3.39193 22.7708 2.20703 20.8047C1.02214 18.8255 0.429688 16.3581 0.429688 13.4023C0.429688 9.11849 1.71875 5.77214 4.29688 3.36328C6.58854 1.24089 9.53776 0.179688 13.1445 0.179688C17.0638 0.179688 20.1628 1.39714 22.4414 3.83203C24.7331 6.25391 25.8789 9.44401 25.8789 13.4023C25.8789 17.8034 24.6549 21.1628 22.207 23.4805C19.9805 25.5768 16.9987 26.625 13.2617 26.625Z" fill="white"/>
</svg>
