<svg width="171" height="35" viewBox="0 0 171 35" fill="none" xmlns="http://www.w3.org/2000/svg">
<path d="M14.043 13.5234C14.043 12.2214 13.9844 11.3294 13.8672 10.8477C13.75 10.3529 13.5352 10.1055 13.2227 10.1055C13.0273 10.1055 12.8516 10.1706 12.6953 10.3008C12.7214 10.5352 12.7604 10.8477 12.8125 11.2383C12.8646 11.6289 12.8906 12.4622 12.8906 13.7383V15.0078C12.8906 15.8932 12.8711 16.5378 12.832 16.9414C12.793 17.3451 12.7604 17.6901 12.7344 17.9766C12.7214 18.1328 12.7083 18.2891 12.6953 18.4453C12.8516 18.5755 13.0273 18.6406 13.2227 18.6406C13.5352 18.6406 13.75 18.3997 13.8672 17.918C13.9844 17.4232 14.043 16.5247 14.043 15.2227V13.5234ZM13.2617 27.625C10.944 27.625 8.8151 27.1497 6.875 26.1992C4.94792 25.2357 3.39193 23.7708 2.20703 21.8047C1.02214 19.8255 0.429688 17.3581 0.429688 14.4023C0.429688 10.1185 1.71875 6.77214 4.29688 4.36328C6.58854 2.24089 9.53776 1.17969 13.1445 1.17969C17.0638 1.17969 20.1628 2.39714 22.4414 4.83203C24.7331 7.25391 25.8789 10.444 25.8789 14.4023C25.8789 18.8034 24.6549 22.1628 22.207 24.4805C19.9805 26.5768 16.9987 27.625 13.2617 27.625ZM37.832 27.6055C34.4466 27.6055 31.7448 26.5638 29.7266 24.4805C27.7214 22.3841 26.7188 19.5781 26.7188 16.0625C26.7188 12.5469 27.8581 9.76693 30.1367 7.72266C32.168 5.89974 34.707 4.98828 37.7539 4.98828C40.4622 4.98828 42.7083 5.65885 44.4922 7C46.276 8.32812 47.168 10.138 47.168 12.4297C47.168 14.0182 46.6732 15.3138 45.6836 16.3164C44.707 17.306 43.418 17.8008 41.8164 17.8008C40.5143 17.8008 39.4271 17.4557 38.5547 16.7656C37.6953 16.0625 37.1875 15.151 37.0312 14.0312C36.4583 14.0312 36.1719 14.2396 36.1719 14.6562C36.1719 15.6068 36.6406 16.4792 37.5781 17.2734C38.6589 18.2109 40 18.6797 41.6016 18.6797C43.2161 18.6797 44.5508 18.3346 45.6055 17.6445C46.2565 18.6471 46.582 19.8646 46.582 21.2969C46.582 22.9635 45.8659 24.3893 44.4336 25.5742C42.793 26.9284 40.5924 27.6055 37.832 27.6055ZM50.1953 14.6562H51.4062C52.0573 14.6562 52.3828 14.4414 52.3828 14.0117C52.3828 13.9596 52.3698 13.8815 52.3438 13.7773H47.9688C47.6823 12.8659 47.5391 11.8503 47.5391 10.7305C47.5391 9.59766 47.6237 8.67969 47.793 7.97656C48.5352 7.50781 49.5573 6.79167 50.8594 5.82812C51.224 4.94271 51.6992 3.53646 52.2852 1.60938C52.3633 1.34896 52.4544 1.09505 52.5586 0.847656C53.5742 0.58724 54.7331 0.457031 56.0352 0.457031C57.3372 0.457031 58.6198 0.59375 59.8828 0.867188V5.65234H63.2617C64.0169 6.79818 64.3945 8.14583 64.3945 9.69531C64.3945 10.3984 64.2969 11.1211 64.1016 11.8633C63.9062 12.6055 63.6263 13.237 63.2617 13.7578H60.4688V16.707C60.4688 18.3737 61.1654 19.207 62.5586 19.207H63.3984C63.6719 20.1966 63.8086 21.056 63.8086 21.7852C63.8086 23.582 63.2422 24.9622 62.1094 25.9258C60.9896 26.8763 59.3555 27.3516 57.207 27.3516C55.0716 27.3516 53.3659 26.7591 52.0898 25.5742C50.8268 24.3763 50.1953 22.6185 50.1953 20.3008V14.6562ZM74.9609 16.1211V19.5391C75.0521 19.6302 75.2018 19.6758 75.4102 19.6758C75.6185 19.6758 75.7682 19.6042 75.8594 19.4609C75.9505 19.3177 75.9961 19.0703 75.9961 18.7188V15.9258C75.9961 14.6758 75.944 13.849 75.8398 13.4453C75.7357 13.0286 75.5404 12.8203 75.2539 12.8203C75.0716 12.8203 74.9154 12.8854 74.7852 13.0156C74.9023 14.3047 74.9609 15.3398 74.9609 16.1211ZM67.6562 24.7734C65.5208 22.7161 64.4531 19.9297 64.4531 16.4141C64.4531 12.8854 65.4557 10.1055 67.4609 8.07422C69.4792 6.02995 72.1224 5.00781 75.3906 5.00781C78.6589 5.00781 81.3021 6.06901 83.3203 8.19141C85.3255 10.3138 86.3281 13.0807 86.3281 16.4922C86.3281 19.8906 85.3581 22.5924 83.418 24.5977C81.4909 26.6029 78.8672 27.6055 75.5469 27.6055C72.2266 27.6055 69.5964 26.6615 67.6562 24.7734ZM89.1016 14.6562H90.3125C90.9635 14.6562 91.2891 14.4414 91.2891 14.0117C91.2891 13.9596 91.276 13.8815 91.25 13.7773H86.875C86.5885 12.8659 86.4453 11.8503 86.4453 10.7305C86.4453 9.59766 86.5299 8.67969 86.6992 7.97656C87.4414 7.50781 88.4635 6.79167 89.7656 5.82812C90.1302 4.94271 90.6055 3.53646 91.1914 1.60938C91.2695 1.34896 91.3607 1.09505 91.4648 0.847656C92.4805 0.58724 93.6393 0.457031 94.9414 0.457031C96.2435 0.457031 97.526 0.59375 98.7891 0.867188V5.65234H104.648C105.404 6.79818 105.781 8.14583 105.781 9.69531C105.781 10.3984 105.684 11.1211 105.488 11.8633C105.293 12.6055 105.013 13.237 104.648 13.7578H99.375V16.707C99.375 18.3737 100.072 19.207 101.465 19.207H102.305C102.578 20.1966 102.715 21.056 102.715 21.7852C102.715 23.582 102.148 24.9622 101.016 25.9258C99.8958 26.8763 98.2617 27.3516 96.1133 27.3516C93.9779 27.3516 92.2721 26.7591 90.9961 25.5742C89.7331 24.3763 89.1016 22.6185 89.1016 20.3008V14.6562ZM114.453 18.4844C114.609 18.4844 114.779 18.4193 114.961 18.2891C114.831 17.8594 114.766 17.1888 114.766 16.2773V6.62891C116.146 5.79557 117.806 5.37891 119.746 5.37891C120.84 5.37891 121.797 5.52865 122.617 5.82812C123.451 6.11458 124.089 6.4987 124.531 6.98047V17.1562C124.531 19.0964 125 20.3594 125.938 20.9453C125.951 21.0104 125.957 21.1341 125.957 21.3164V21.668C125.957 23.569 125.456 25.0078 124.453 25.9844C123.542 26.8958 122.285 27.3516 120.684 27.3516C119.681 27.3516 118.77 27.1237 117.949 26.668C117.142 26.2122 116.536 25.5482 116.133 24.6758C115.69 24.6758 115.469 24.8906 115.469 25.3203C115.469 25.6198 115.618 25.9193 115.918 26.2188C115.501 26.5573 115 26.8307 114.414 27.0391C113.828 27.2474 112.962 27.3516 111.816 27.3516C110.684 27.3516 109.577 27.1172 108.496 26.6484C107.155 26.0755 106.126 25.1966 105.41 24.0117C104.538 22.6055 104.102 20.8216 104.102 18.6602V13.7578C103.438 12.599 103.105 11.3229 103.105 9.92969C103.105 9.21354 103.197 8.47135 103.379 7.70312C103.561 6.9349 103.854 6.2513 104.258 5.65234H108.555C110.169 5.65234 111.432 6.03646 112.344 6.80469C113.268 7.5599 113.73 8.71224 113.73 10.2617V16.5898C113.73 17.8529 113.971 18.4844 114.453 18.4844ZM147.5 17.332C147.5 18.2695 147.604 19.0247 147.812 19.5977C148.021 20.1706 148.385 20.6198 148.906 20.9453C148.919 21.0104 148.926 21.1341 148.926 21.3164V21.668C148.926 23.4648 148.405 24.8646 147.363 25.8672C146.335 26.8568 145 27.3516 143.359 27.3516C141.732 27.3516 140.41 26.8893 139.395 25.9648C138.21 24.9102 137.617 23.3086 137.617 21.1602C137.617 20.2487 137.656 19.4479 137.734 18.7578C137.826 18.0547 137.884 17.5534 137.91 17.2539C137.949 16.9544 137.988 16.6745 138.027 16.4141C138.066 16.1536 138.086 15.7695 138.086 15.2617C138.086 14.7539 138.014 14.3893 137.871 14.168C137.741 13.9466 137.552 13.8359 137.305 13.8359C137.07 13.8359 136.862 13.888 136.68 13.9922L136.934 17.1758C136.699 18.4909 136.582 19.8841 136.582 21.3555C136.582 22.8268 136.914 24.168 137.578 25.3789C136.302 26.694 134.512 27.3516 132.207 27.3516C130.892 27.3516 129.753 27.0065 128.789 26.3164C127.669 25.5352 127.109 24.5 127.109 23.2109V13.7578C126.341 12.6771 125.957 11.349 125.957 9.77344C125.957 8.1849 126.341 6.8112 127.109 5.65234H130.586C131.51 5.65234 132.298 5.9974 132.949 6.6875C132.376 7.22135 132.09 7.66406 132.09 8.01562C132.09 8.41927 132.318 8.62109 132.773 8.62109C133.346 7.63151 134.219 6.8112 135.391 6.16016C136.576 5.50911 137.917 5.18359 139.414 5.18359C141.667 5.18359 143.496 5.73698 144.902 6.84375C146.673 8.23698 147.559 10.3984 147.559 13.3281L147.5 17.332ZM160.566 12.9961C160.566 12.5273 160.391 12.293 160.039 12.293C159.714 12.293 159.551 12.4883 159.551 12.8789V14.8906C159.655 14.9818 159.811 15.0273 160.02 15.0273C160.228 15.0273 160.371 14.9492 160.449 14.793C160.527 14.6367 160.566 14.3503 160.566 13.9336V12.9961ZM161.289 20.9062C160.456 20.9062 159.746 20.8477 159.16 20.7305C159.121 20.8477 159.102 20.9583 159.102 21.0625C159.102 21.349 159.303 21.5443 159.707 21.6484C160.124 21.7396 160.651 21.7852 161.289 21.7852C163.32 21.7852 165.052 21.4857 166.484 20.8867C167.891 21.2513 168.984 22.0456 169.766 23.2695C170.404 24.2721 170.723 25.4505 170.723 26.8047C170.723 29.2135 169.701 31.0885 167.656 32.4297C165.612 33.7708 162.975 34.4414 159.746 34.4414C156.53 34.4414 154.043 33.8685 152.285 32.7227C150.658 31.681 149.844 30.3268 149.844 28.6602C149.844 28.0221 149.993 27.4102 150.293 26.8242C150.592 26.2253 150.938 25.8151 151.328 25.5938C151.979 26.1406 152.936 26.5833 154.199 26.9219C155.475 27.2604 156.784 27.4297 158.125 27.4297C159.466 27.4297 160.326 27.3776 160.703 27.2734C161.094 27.1693 161.289 26.987 161.289 26.7266C161.289 26.5964 161.25 26.4661 161.172 26.3359C160.521 26.4792 159.707 26.5508 158.73 26.5508C156.217 26.5508 154.245 26.1927 152.812 25.4766C151.068 24.6172 150.195 23.3216 150.195 21.5898C150.195 20.9128 150.332 20.2878 150.605 19.7148C150.879 19.1289 151.283 18.6927 151.816 18.4062C151.1 17.9635 150.488 17.293 149.98 16.3945C149.486 15.4961 149.238 14.3893 149.238 13.0742C149.238 10.5742 150.176 8.60156 152.051 7.15625C153.926 5.71094 156.361 4.98828 159.355 4.98828C160.801 4.98828 162.194 5.22917 163.535 5.71094V4.34375C164.303 4.04427 165.319 3.89453 166.582 3.89453C167.858 3.89453 168.828 4.10938 169.492 4.53906C170.299 5.0599 170.703 5.97786 170.703 7.29297C170.703 8.02214 170.625 8.60807 170.469 9.05078C170.326 9.49349 170.111 9.95573 169.824 10.4375C170.163 11.2969 170.332 12.3646 170.332 13.6406C170.332 15.9453 169.512 17.7357 167.871 19.0117C166.243 20.2747 164.049 20.9062 161.289 20.9062Z" fill="white"/>
</svg>
